<svg xmlns="http://www.w3.org/2000/svg" viewBox="0 0 173.11 171.85"><defs><style>.cls-1{fill:#fff;}</style></defs><g id="레이어_2" data-name="레이어 2"><g id="레이어_1-2" data-name="레이어 1"><path class="cls-1" d="M35.42,161.72A11,11,0,0,1,34,166.57c-1.71,2.88-4.66,4.05-7.82,4.55a59.77,59.77,0,0,1-16.63.28c-3.93-.48-7.84-2-8.81-6.22C-.58,159.51.27,152.6.28,146.8L.43,59.59c0-3.43,0-7,1.49-10.1,2.2-4.71,7.37-7.5,12.54-8.1A22,22,0,0,1,30.13,45.7c5.61,4.27,6.31,11.72,6,18.25-.68,13.27-1.74,26.53-2.11,39.82s0,26.65,0,40a111,111,0,0,0,1.23,13.63A21.82,21.82,0,0,1,35.42,161.72Z"/><path class="cls-1" d="M173,63.7c0-5.59-3.39-9.57-9.31-11,0-8.25-.16-16.24.05-24.21.15-5.46-3.21-8.78-6.56-12.21C154,13,150.64,10,147.71,6.53c-3.13-3.67-6-6.6-11.61-6.53C110.27.31,84.44.11,58.61.21c-3.78,0-7.35-.92-10.81,3.22s-6.32,7.14-6.29,13c.24,47.83.14,95.66.07,143.49,0,8.29,3.07,11.63,11.6,11.64q55.5,0,111,0c8,0,8.87-.73,8.89-8.91Q173.2,113.2,173,63.7ZM87.54,142.35a5.8,5.8,0,0,1-5.8,5.8h-9a5.8,5.8,0,0,1-5.8-5.8v-9a5.8,5.8,0,0,1,5.8-5.8h9a5.8,5.8,0,0,1,5.8,5.8Zm0-39.77a5.8,5.8,0,0,1-5.8,5.8h-9a5.79,5.79,0,0,1-5.8-5.8v-9a5.8,5.8,0,0,1,5.8-5.8h9a5.8,5.8,0,0,1,5.8,5.8Zm51.79,39.77a5.8,5.8,0,0,1-5.8,5.8h-9a5.8,5.8,0,0,1-5.8-5.8v-9a5.8,5.8,0,0,1,5.8-5.8h9a5.8,5.8,0,0,1,5.8,5.8Zm0-39.77a5.8,5.8,0,0,1-5.8,5.8h-9a5.8,5.8,0,0,1-5.8-5.8v-9a5.8,5.8,0,0,1,5.8-5.8h9a5.8,5.8,0,0,1,5.8,5.8Zm-.19-40.39c0,1-1.95,2.65-3,2.66q-32.73.23-65.46,0c-1.25,0-3.54-2.08-3.57-3.23-.27-11.79-.16-23.58-.16-35.77H119.4V45.35h19.89C139.29,51.34,139.44,56.77,139.14,62.19Z"/></g></g></svg>